<?xml version="1.0" encoding="UTF-8"?>
<svg xmlns="http://www.w3.org/2000/svg" xmlns:xlink="http://www.w3.org/1999/xlink" width="43px" height="32px" viewBox="0 0 42 32" version="1.1">
<g id="surface1">
<path style=" stroke:none;fill-rule:evenodd;fill:rgb(4.313726%,48.235294%,10.588235%);fill-opacity:1;" d="M 21.917969 1.273438 C 21.59375 1.570312 20.566406 2.609375 20.171875 3.039062 C 18.316406 5.0625 16.863281 7.027344 15.683594 9.113281 C 14.660156 10.921875 13.976562 12.644531 13.640625 14.261719 C 13.414062 15.351562 13.394531 16.585938 13.597656 17.394531 C 13.742188 17.980469 13.964844 18.484375 14.253906 18.882812 C 14.488281 19.207031 14.921875 19.601562 15.269531 19.8125 C 15.730469 20.089844 16.371094 20.3125 16.960938 20.398438 C 18.199219 20.582031 19.789062 20.425781 21.289062 19.980469 C 22.730469 19.550781 23.941406 19.035156 25.628906 18.128906 C 26.121094 17.867188 27.222656 17.191406 27.851562 16.769531 C 29.578125 15.605469 30.859375 14.597656 32.472656 13.128906 C 33.523438 12.175781 35.011719 10.65625 35.785156 9.75 C 35.894531 9.625 36.035156 9.460938 36.101562 9.386719 C 36.285156 9.175781 36.800781 8.554688 37.046875 8.238281 C 37.167969 8.085938 37.300781 7.917969 37.339844 7.863281 C 37.460938 7.71875 37.691406 7.414062 37.847656 7.199219 C 38.542969 6.25 38.71875 5.996094 39.183594 5.253906 C 39.898438 4.117188 40.289062 3.394531 40.648438 2.539062 C 40.78125 2.222656 40.78125 2.246094 40.640625 1.964844 C 40.457031 1.601562 40.132812 1.324219 39.726562 1.1875 C 39.402344 1.078125 39.875 1.082031 30.664062 1.082031 L 22.128906 1.082031 L 21.917969 1.273438 M 40.839844 3.671875 C 40.839844 4.117188 40.84375 4.296875 40.847656 4.070312 C 40.851562 3.84375 40.851562 3.480469 40.847656 3.261719 C 40.84375 3.039062 40.839844 3.226562 40.839844 3.671875 M 40.839844 5.867188 C 40.839844 6.214844 40.84375 6.359375 40.847656 6.183594 C 40.851562 6.011719 40.851562 5.722656 40.847656 5.550781 C 40.84375 5.375 40.839844 5.519531 40.839844 5.867188 M 1.15625 6.605469 C 1.15625 6.847656 1.160156 6.941406 1.164062 6.816406 C 1.167969 6.695312 1.167969 6.496094 1.164062 6.382812 C 1.160156 6.265625 1.15625 6.367188 1.15625 6.605469 M 40.839844 7.855469 C 40.839844 8.175781 40.84375 8.304688 40.847656 8.140625 C 40.851562 7.976562 40.851562 7.714844 40.847656 7.554688 C 40.84375 7.398438 40.839844 7.535156 40.839844 7.855469 M 40.839844 9.476562 C 40.839844 9.601562 40.84375 9.652344 40.847656 9.585938 C 40.851562 9.519531 40.851562 9.417969 40.847656 9.355469 C 40.84375 9.296875 40.839844 9.351562 40.839844 9.476562 M 40.839844 12.578125 C 40.839844 12.828125 40.84375 12.929688 40.847656 12.800781 C 40.851562 12.671875 40.851562 12.464844 40.847656 12.34375 C 40.84375 12.21875 40.839844 12.324219 40.839844 12.578125 M 40.839844 13.503906 C 40.839844 13.636719 40.84375 13.6875 40.847656 13.621094 C 40.851562 13.558594 40.851562 13.449219 40.847656 13.382812 C 40.84375 13.316406 40.839844 13.371094 40.839844 13.503906 M 40.839844 15.96875 C 40.839844 17.191406 40.84375 17.691406 40.847656 17.074219 C 40.847656 16.460938 40.847656 15.457031 40.847656 14.847656 C 40.84375 14.242188 40.839844 14.746094 40.839844 15.96875 M 12.273438 17.070312 C 12.273438 17.207031 12.273438 17.261719 12.277344 17.191406 C 12.28125 17.117188 12.28125 17.007812 12.277344 16.941406 C 12.273438 16.875 12.269531 16.933594 12.273438 17.070312 M 10.609375 18.152344 C 10.609375 18.300781 10.613281 18.359375 10.617188 18.28125 C 10.621094 18.203125 10.621094 18.082031 10.617188 18.011719 C 10.613281 17.941406 10.609375 18.003906 10.609375 18.152344 M 40.839844 18.652344 C 40.839844 18.789062 40.84375 18.84375 40.847656 18.773438 C 40.851562 18.699219 40.851562 18.585938 40.847656 18.523438 C 40.84375 18.457031 40.839844 18.515625 40.839844 18.652344 M 40.839844 20.253906 C 40.839844 21 40.84375 21.300781 40.847656 20.925781 C 40.847656 20.546875 40.847656 19.941406 40.847656 19.570312 C 40.84375 19.203125 40.839844 19.511719 40.839844 20.253906 M 40.839844 21.949219 C 40.839844 22.140625 40.84375 22.214844 40.847656 22.121094 C 40.851562 22.027344 40.851562 21.875 40.847656 21.777344 C 40.84375 21.683594 40.839844 21.761719 40.839844 21.949219 M 17.003906 21.714844 C 17.082031 21.71875 17.210938 21.71875 17.292969 21.714844 C 17.375 21.710938 17.3125 21.710938 17.15625 21.710938 C 16.996094 21.710938 16.929688 21.710938 17.003906 21.714844 M 4.417969 22.230469 C 4.417969 22.378906 4.421875 22.4375 4.425781 22.359375 C 4.429688 22.28125 4.429688 22.160156 4.425781 22.089844 C 4.421875 22.019531 4.417969 22.082031 4.417969 22.230469 M 40.839844 22.804688 C 40.839844 23.074219 40.84375 23.183594 40.847656 23.046875 C 40.851562 22.914062 40.851562 22.695312 40.847656 22.558594 C 40.84375 22.425781 40.839844 22.535156 40.839844 22.804688 M 15.847656 23.320312 C 15.964844 23.320312 16.152344 23.320312 16.269531 23.320312 C 16.382812 23.316406 16.289062 23.3125 16.058594 23.3125 C 15.828125 23.3125 15.730469 23.316406 15.847656 23.320312 M 15.734375 23.589844 C 15.84375 23.59375 16.023438 23.59375 16.132812 23.589844 C 16.246094 23.585938 16.15625 23.582031 15.933594 23.582031 C 15.714844 23.582031 15.625 23.585938 15.734375 23.589844 M 40.839844 25.425781 C 40.839844 26.152344 40.84375 26.449219 40.847656 26.085938 C 40.847656 25.722656 40.847656 25.128906 40.847656 24.765625 C 40.84375 24.402344 40.839844 24.699219 40.839844 25.425781 M 40.839844 27.046875 C 40.839844 27.214844 40.84375 27.28125 40.847656 27.199219 C 40.851562 27.117188 40.851562 26.980469 40.847656 26.898438 C 40.84375 26.8125 40.839844 26.882812 40.839844 27.046875 M 13.253906 27.085938 C 13.339844 27.089844 13.484375 27.089844 13.570312 27.085938 C 13.660156 27.082031 13.585938 27.078125 13.414062 27.078125 C 13.238281 27.078125 13.164062 27.082031 13.253906 27.085938 M 13.128906 27.4375 C 13.207031 27.441406 13.332031 27.441406 13.40625 27.4375 C 13.484375 27.433594 13.421875 27.429688 13.269531 27.429688 C 13.117188 27.429688 13.054688 27.433594 13.128906 27.4375 M 40.839844 28.203125 C 40.839844 28.601562 40.84375 28.765625 40.847656 28.558594 C 40.851562 28.355469 40.851562 28.027344 40.847656 27.832031 C 40.84375 27.636719 40.839844 27.800781 40.839844 28.203125 M 12.101562 30.765625 C 17.015625 30.769531 25.0625 30.769531 29.984375 30.765625 C 34.90625 30.765625 30.886719 30.761719 21.050781 30.761719 C 11.214844 30.761719 7.1875 30.765625 12.101562 30.765625 "/>
<path style=" stroke:none;fill-rule:evenodd;fill:rgb(2.352941%,9.019608%,47.450981%);fill-opacity:1;" d="M 2.617188 1.105469 C 2.390625 1.136719 2.246094 1.183594 2.03125 1.292969 C 1.863281 1.378906 1.789062 1.433594 1.671875 1.546875 C 1.421875 1.796875 1.269531 2.070312 1.195312 2.390625 C 1.167969 2.515625 1.164062 3.855469 1.15625 15.691406 C 1.148438 23.804688 1.15625 28.960938 1.167969 29.132812 C 1.199219 29.597656 1.324219 29.894531 1.621094 30.191406 C 1.863281 30.4375 2.164062 30.566406 2.773438 30.691406 L 3.078125 30.75 L 38.976562 30.75 L 39.210938 30.707031 C 40.015625 30.5625 40.457031 30.277344 40.699219 29.742188 C 40.84375 29.421875 40.832031 30.277344 40.835938 20.324219 C 40.839844 15.382812 40.835938 11.339844 40.828125 11.34375 C 40.820312 11.347656 40.714844 11.46875 40.59375 11.609375 C 40.472656 11.753906 40.300781 11.953125 40.207031 12.058594 C 40.117188 12.160156 39.945312 12.355469 39.824219 12.492188 C 39.441406 12.9375 38.808594 13.625 38.082031 14.386719 C 36.324219 16.238281 34.191406 18.222656 32.1875 19.871094 C 32.097656 19.945312 31.925781 20.085938 31.808594 20.183594 C 31.519531 20.421875 30.78125 21 30.28125 21.382812 C 28.242188 22.933594 26.070312 24.363281 24.097656 25.453125 C 21.144531 27.082031 18.441406 28.175781 15.851562 28.78125 C 14.300781 29.148438 13.074219 29.289062 11.636719 29.269531 C 10.917969 29.257812 10.605469 29.234375 10.089844 29.160156 C 8.769531 28.960938 7.640625 28.511719 6.707031 27.804688 C 6.453125 27.613281 5.964844 27.128906 5.789062 26.890625 C 5.539062 26.550781 5.234375 26.03125 5.078125 25.675781 C 4.464844 24.273438 4.277344 22.582031 4.523438 20.621094 C 4.671875 19.429688 4.90625 18.390625 5.3125 17.101562 C 5.753906 15.703125 6.25 14.488281 6.984375 12.984375 C 8.003906 10.894531 9.070312 9.121094 10.589844 6.96875 C 10.875 6.566406 11.6875 5.464844 11.832031 5.285156 C 11.875 5.234375 12.019531 5.050781 12.152344 4.878906 C 12.566406 4.34375 13.3125 3.429688 13.65625 3.027344 C 13.777344 2.890625 13.960938 2.675781 14.066406 2.546875 C 14.320312 2.253906 15.117188 1.351562 15.164062 1.3125 C 15.183594 1.296875 15.234375 1.238281 15.28125 1.183594 L 15.363281 1.082031 L 9.050781 1.085938 C 5.578125 1.085938 2.683594 1.09375 2.617188 1.105469 M 16.03125 1.273438 C 15.257812 2.136719 14.625 2.878906 13.945312 3.734375 C 13.734375 3.996094 13.695312 4.046875 13.402344 4.421875 C 12.78125 5.214844 12.066406 6.195312 11.457031 7.097656 C 10.570312 8.402344 9.863281 9.566406 9.199219 10.808594 C 7.527344 13.929688 6.535156 16.863281 6.289062 19.445312 C 6.179688 20.558594 6.199219 21.472656 6.347656 22.324219 C 6.660156 24.097656 7.457031 25.382812 8.796875 26.292969 C 9.726562 26.925781 11 27.300781 12.570312 27.402344 C 13.210938 27.445312 14.34375 27.40625 15.042969 27.320312 C 16.257812 27.164062 17.550781 26.871094 18.90625 26.445312 C 20.886719 25.820312 23.328125 24.714844 25.460938 23.472656 C 26.058594 23.125 26.914062 22.597656 27.542969 22.191406 C 28.8125 21.363281 30.203125 20.367188 31.414062 19.410156 C 31.613281 19.257812 31.855469 19.066406 31.960938 18.984375 C 32.316406 18.710938 33.226562 17.957031 33.757812 17.496094 C 35.226562 16.226562 36.4375 15.085938 37.898438 13.609375 C 38.511719 12.988281 39.789062 11.601562 40.542969 10.738281 L 40.839844 10.398438 L 40.835938 9.832031 C 40.832031 9.523438 40.828125 9.269531 40.824219 9.265625 C 40.824219 9.265625 40.738281 9.371094 40.636719 9.503906 C 40.328125 9.910156 39.667969 10.707031 39.078125 11.394531 C 37.550781 13.160156 35.726562 15.027344 33.921875 16.675781 C 33.183594 17.347656 31.667969 18.640625 31.019531 19.140625 C 30.894531 19.242188 30.691406 19.398438 30.566406 19.496094 C 30.316406 19.695312 29.273438 20.476562 28.988281 20.679688 C 28.886719 20.753906 28.722656 20.875 28.625 20.945312 C 28.414062 21.101562 27.292969 21.863281 26.867188 22.136719 C 24.234375 23.851562 21.292969 25.300781 18.878906 26.078125 C 18.640625 26.15625 18.359375 26.246094 18.25 26.28125 C 18.144531 26.316406 17.808594 26.410156 17.503906 26.484375 C 14.855469 27.164062 12.84375 27.261719 11.03125 26.796875 C 9.902344 26.507812 9.042969 26.046875 8.355469 25.351562 C 7.882812 24.878906 7.539062 24.367188 7.285156 23.761719 C 6.957031 22.988281 6.769531 22.132812 6.734375 21.253906 C 6.730469 21.09375 6.722656 20.90625 6.71875 20.835938 C 6.714844 20.769531 6.71875 20.523438 6.730469 20.296875 C 6.796875 18.78125 7.101562 17.269531 7.679688 15.585938 C 8.273438 13.863281 9.074219 12.132812 10.105469 10.332031 C 11.246094 8.347656 12.964844 5.890625 14.488281 4.066406 C 15.054688 3.386719 15.195312 3.222656 15.359375 3.039062 C 16.046875 2.261719 16.519531 1.742188 16.917969 1.328125 L 17.152344 1.082031 L 16.203125 1.082031 L 16.03125 1.273438 M 17.46875 1.535156 C 15.785156 3.351562 14 5.632812 12.703125 7.625 C 11.464844 9.527344 10.546875 11.210938 9.871094 12.816406 C 9.046875 14.769531 8.578125 16.4375 8.390625 18.082031 C 8.300781 18.847656 8.300781 19.933594 8.390625 20.546875 C 8.46875 21.085938 8.605469 21.628906 8.777344 22.066406 C 9.019531 22.6875 9.503906 23.417969 9.949219 23.832031 C 10.964844 24.785156 12.339844 25.289062 14.191406 25.386719 C 15.042969 25.433594 16 25.359375 17.179688 25.164062 C 17.972656 25.03125 19.007812 24.769531 19.871094 24.484375 C 20.578125 24.25 21.519531 23.894531 22.199219 23.601562 C 24.976562 22.402344 28.097656 20.488281 30.996094 18.210938 C 31.824219 17.5625 31.742188 17.628906 32.800781 16.730469 C 33.835938 15.847656 34.304688 15.425781 35.386719 14.398438 C 36.261719 13.566406 37.941406 11.828125 38.644531 11.027344 C 38.699219 10.964844 38.921875 10.710938 39.136719 10.464844 C 39.605469 9.929688 40.121094 9.320312 40.53125 8.816406 L 40.832031 8.445312 L 40.828125 7.859375 C 40.828125 7.300781 40.828125 7.273438 40.792969 7.324219 C 40.667969 7.503906 39.808594 8.65625 39.558594 8.96875 C 38.703125 10.054688 37.671875 11.265625 36.851562 12.152344 C 35.746094 13.351562 34.042969 15.03125 32.964844 15.992188 C 32.195312 16.675781 31.417969 17.335938 30.859375 17.78125 C 29.183594 19.117188 27.972656 19.984375 26.402344 20.96875 C 23.585938 22.734375 20.796875 23.992188 18.316406 24.613281 C 17.566406 24.800781 16.640625 24.96875 15.925781 25.042969 C 15.421875 25.097656 14.082031 25.097656 13.65625 25.042969 C 12.636719 24.914062 11.734375 24.609375 10.984375 24.148438 C 10.054688 23.574219 9.410156 22.683594 9.054688 21.488281 C 8.957031 21.15625 8.84375 20.589844 8.804688 20.234375 C 8.761719 19.847656 8.765625 18.921875 8.804688 18.441406 C 8.972656 16.574219 9.628906 14.414062 10.730469 12.109375 C 11.878906 9.707031 13.457031 7.261719 15.449219 4.796875 C 16.449219 3.5625 17.308594 2.585938 18.25 1.617188 L 18.769531 1.082031 L 17.886719 1.082031 L 17.46875 1.535156 M 19.140625 1.359375 C 17.894531 2.652344 16.625 4.152344 15.625 5.503906 C 14.167969 7.472656 13.199219 9.011719 12.351562 10.6875 C 11.675781 12.03125 11.246094 13.070312 10.867188 14.285156 C 10.113281 16.703125 10.007812 18.832031 10.570312 20.4375 C 10.679688 20.75 10.765625 20.9375 10.933594 21.222656 C 11.722656 22.550781 13.011719 23.296875 14.910156 23.527344 C 15.382812 23.582031 16.625 23.578125 17.1875 23.515625 C 18.28125 23.394531 19.1875 23.199219 20.363281 22.835938 C 21.84375 22.375 23.710938 21.5625 25.167969 20.742188 C 25.375 20.628906 25.632812 20.480469 25.746094 20.417969 C 27.558594 19.398438 29.761719 17.847656 31.828125 16.144531 C 32.222656 15.820312 33.105469 15.046875 33.644531 14.550781 C 34.988281 13.320312 35.925781 12.382812 37.222656 10.964844 C 38.453125 9.617188 39.648438 8.152344 40.628906 6.785156 L 40.832031 6.507812 L 40.828125 5.871094 C 40.828125 5.367188 40.824219 5.242188 40.804688 5.273438 C 40.609375 5.585938 39.691406 6.964844 39.5 7.230469 C 38.160156 9.09375 36.503906 11.0625 34.832031 12.773438 C 33.226562 14.417969 31.769531 15.730469 30.003906 17.125 C 29.015625 17.90625 27.761719 18.804688 26.894531 19.351562 C 25.347656 20.328125 24.085938 21.03125 23.039062 21.503906 C 21.550781 22.175781 20.640625 22.511719 19.433594 22.832031 C 18.820312 22.996094 18.648438 23.035156 18.121094 23.125 C 16.542969 23.398438 15.21875 23.382812 14.058594 23.082031 C 13.71875 22.992188 13.402344 22.871094 13.03125 22.6875 C 12.265625 22.308594 11.6875 21.773438 11.308594 21.09375 C 10.507812 19.660156 10.394531 17.789062 10.972656 15.417969 C 11.394531 13.679688 12.199219 11.777344 13.382812 9.714844 C 14.140625 8.398438 15.167969 6.882812 16.171875 5.605469 C 17.3125 4.160156 18.257812 3.078125 19.519531 1.785156 L 20.207031 1.082031 L 19.40625 1.082031 L 19.140625 1.359375 M 20.453125 1.441406 C 19.230469 2.660156 17.746094 4.371094 16.808594 5.632812 C 15.488281 7.414062 14.488281 9.019531 13.710938 10.589844 C 12.96875 12.097656 12.480469 13.425781 12.164062 14.804688 C 11.878906 16.039062 11.824219 17.4375 12.019531 18.402344 C 12.203125 19.300781 12.613281 20.074219 13.210938 20.648438 C 14.066406 21.476562 15.222656 21.886719 16.847656 21.941406 C 17.398438 21.960938 18.09375 21.910156 18.804688 21.804688 C 19.621094 21.679688 20.523438 21.449219 21.503906 21.121094 C 23.628906 20.410156 26.074219 19.128906 28.402344 17.511719 C 31.527344 15.347656 34.453125 12.679688 37.140625 9.558594 C 38.148438 8.386719 38.933594 7.367188 39.878906 5.992188 C 40.160156 5.585938 40.273438 5.414062 40.695312 4.71875 L 40.832031 4.492188 L 40.828125 3.695312 L 40.820312 2.894531 L 40.691406 3.183594 C 40.445312 3.726562 40.003906 4.539062 39.570312 5.253906 C 39.191406 5.878906 38.257812 7.265625 37.917969 7.707031 C 37.867188 7.777344 37.734375 7.957031 37.621094 8.105469 C 36.5625 9.523438 35.335938 10.941406 33.992188 12.304688 C 32.074219 14.25 30.433594 15.667969 28.335938 17.191406 C 28.117188 17.347656 27.066406 18.054688 26.78125 18.238281 C 25.109375 19.296875 23.527344 20.113281 22.085938 20.660156 C 20.574219 21.234375 19.417969 21.527344 18.085938 21.671875 C 17.640625 21.71875 16.722656 21.71875 16.335938 21.671875 C 14.707031 21.46875 13.679688 20.882812 12.945312 19.738281 C 12.460938 18.988281 12.214844 17.847656 12.28125 16.679688 C 12.367188 15.222656 12.757812 13.71875 13.519531 11.964844 C 13.753906 11.417969 14.222656 10.472656 14.527344 9.921875 C 15.5 8.152344 16.851562 6.226562 18.3125 4.515625 C 19.3125 3.339844 20.042969 2.5625 21.070312 1.574219 C 21.273438 1.378906 21.472656 1.191406 21.511719 1.152344 L 21.582031 1.082031 L 20.8125 1.082031 L 20.453125 1.441406 "/>
</g>
</svg>
